<svg version="1.1" id="Layer_1" xmlns="http://www.w3.org/2000/svg" x="0" y="0" viewBox="0 0 625.1 102.4" style="enable-background:new 0 0 625.1 102.4" xml:space="preserve"><style>.st0{fill:#ee3124}.st5{opacity:.4}.st6{opacity:.3}</style><path class="st0" d="M148.1 96.8c-10.1 0-20.7-2.2-28.1-5.6l3.3-15.2c8 2.5 16.1 4.2 25.1 4.2 10.1 0 12-2 12-9.3 0-7.8-.4-8.8-14.7-11.9-21.1-4.6-24.2-8.8-24.2-27.6 0-17.4 6.1-24.3 30.1-24.3 7.6 0 16.7.8 26.4 2.9l-2 16.5c-9.9-1.7-16.4-2.5-24.2-2.5-8.8 0-10.7 1.6-10.7 8 0 8.4.4 8.5 14.1 11.8C178.9 49.3 180 53.9 180 71c0 17.3-5.6 25.8-31.9 25.8zM274.1 95.5V8.4h19.6v87.1h-19.6zM346.1 25.8v69.7h-19.6V25.8H303V8.4h66.5v17.4h-23.4zM396.8 31.3c-2.2 0-4.8-.4-6.7-1.2l.5-2.4c2.1.6 4.2 1 6.3 1 3.6 0 4.4-.9 4.4-3.5 0-3.1 0-3.3-4.7-4.4-5.5-1.2-6.1-2.3-6.1-6.9 0-3.9 1.6-5.8 7.2-5.8 2 0 4.3.3 6.1.7l-.2 2.5c-1.8-.4-3.9-.6-5.8-.6-3.7 0-4.4.7-4.4 3.4 0 3.1 0 3.3 4.5 4.4 6 1.5 6.3 2.4 6.3 6.8-.1 3.8-1.2 6-7.4 6zM414.9 31.3c-4.8 0-6.7-2.7-6.7-6.2v-4.8c0-3.5 1.9-6.2 6.7-6.2s6.7 2.7 6.7 6.2v4.8c0 3.5-1.9 6.2-6.7 6.2zm0-14.7c-2.6 0-3.9 1.2-3.9 3.6v5c0 2.4 1.3 3.6 3.9 3.6 2.6 0 3.9-1.2 3.9-3.6v-5c0-2.4-1.3-3.6-3.9-3.6zM428.9 14.5v12.6c0 1.1.5 1.5 1.6 1.5 1.2 0 3.8-.7 5.5-1.7V14.5h2.8V31h-2.3l-.3-1.4c-1.8.9-4.7 1.8-6.6 1.8-2.6 0-3.6-1.7-3.6-4.2V14.5h2.9zM452.9 30.7c-1 .4-2.2.6-3.5.6-2.8 0-4.1-1-4.1-3.8V16.8h-2.9v-2.4h2.9v-4.1l2.8-.4v4.5h4.7l-.2 2.4h-4.4V27c0 1.2.2 1.8 1.7 1.8.8 0 1.6-.1 2.6-.4l.4 2.3zM466.7 31V18.4c0-1.1-.5-1.5-1.6-1.5-1.2 0-3.8.8-5.5 1.7V31h-2.8V7.7l2.8-.4v8.5c1.8-.9 4.4-1.7 6.4-1.7 2.6 0 3.6 1.7 3.6 4.2V31h-2.9zM480.8 28.9c1.6 0 3.4-.3 5.2-.8l.4 2.3c-1.6.6-3.8.9-5.8.9-4.9 0-6.5-2.3-6.5-6.1v-4.9c0-3.4 1.6-6.2 6.5-6.2s6.2 2.8 6.2 6.2v3.5H477v1.4c-.2 2.6.5 3.7 3.8 3.7zm-4-7.5h7.1V20c0-2.3-.8-3.6-3.5-3.6s-3.6 1.3-3.6 3.6v1.4zM498.7 16.7c-1.6.7-3.4 1.9-4.7 2.8V31h-2.8V14.5h2.5l.2 2.3c1.2-.9 2.9-2 4.5-2.6l.3 2.5zM511.5 31V18.4c0-1.1-.5-1.5-1.6-1.5-1.2 0-3.8.7-5.5 1.7V31h-2.8V14.5h2.3l.3 1.4c1.8-.9 4.7-1.8 6.6-1.8 2.6 0 3.6 1.7 3.6 4.2V31h-2.9zM544.4 31h-2.9l-1.9-5.4H530l-1.8 5.4h-2.9l7.6-22.6h3.9l7.6 22.6zm-9.6-20.5-4 12.5h8.1l-4.1-12.5zM548 31V7.7l2.8-.4V31H548zM569.2 25.1c0 3.8-1.4 6.2-7 6.2-1.5 0-4-.2-5.9-.6v-23l2.8-.4v8c1.2-.6 3.1-1.2 5.2-1.2 3.4 0 4.8 2 4.8 5.2v5.8zm-10.1 3.5c1.1.2 2.2.2 3.3.2 3.4 0 4-1.4 4-3.6v-6.1c0-1.7-.7-2.5-2.7-2.5-1.5 0-3.4.7-4.5 1.3v10.7zM579.8 28.9c1.6 0 3.4-.3 5.2-.8l.4 2.3c-1.6.6-3.8.9-5.8.9-4.9 0-6.5-2.3-6.5-6.1v-4.9c0-3.4 1.6-6.2 6.5-6.2s6.2 2.8 6.2 6.2v3.5H576v1.4c-.1 2.6.6 3.7 3.8 3.7zm-3.9-7.5h7.1V20c0-2.3-.8-3.6-3.5-3.6s-3.6 1.3-3.6 3.6v1.4zM597.7 16.7c-1.6.7-3.4 1.9-4.7 2.8V31h-2.8V14.5h2.5l.2 2.3c1.2-.9 2.9-2 4.5-2.6l.3 2.5zM609.5 30.7c-1 .4-2.2.6-3.5.6-2.8 0-4.1-1-4.1-3.8V16.8H599v-2.4h2.9v-4.1l2.8-.4v4.5h4.7l-.2 2.4h-4.4V27c0 1.2.2 1.8 1.7 1.8.8 0 1.6-.1 2.6-.4l.4 2.3zM625.1 31h-2.4l-.2-1.2c-1.5 1-3.4 1.6-5.4 1.6-3.1 0-4.4-1.8-4.4-4.7 0-3.4 1.7-4.6 5-4.6h4.4v-2.6c0-2.1-.9-2.8-3.6-2.8-1.6 0-3.7.3-4.9.5l-.3-2.3c1.6-.4 3.7-.7 5.4-.7 4.7 0 6.3 1.8 6.3 5.4V31zm-2.9-6.7H618c-1.8 0-2.4.5-2.4 2.2 0 1.7.3 2.4 2.3 2.4 1.4 0 3-.5 4.3-1.4v-3.2zM394 63.2h-2.9V40.6h2.9v22.6zM409.7 63.2V50.6c0-1.1-.5-1.5-1.6-1.5-1.2 0-3.8.7-5.5 1.7v12.5h-2.8V46.7h2.3l.3 1.4c1.8-.9 4.7-1.8 6.6-1.8 2.6 0 3.6 1.7 3.6 4.2v12.6h-2.9zM422.4 63.5c-1.7 0-3.9-.4-5.3-.9l.4-2.2c1.4.4 3.3.7 4.7.7 2.6 0 3-.5 3-2.2s-.1-2-3.5-2.8c-4.1-1-4.5-1.9-4.5-5.3 0-3 1.4-4.4 5.7-4.4 1.6 0 3.3.2 4.7.6l-.2 2.3c-1.4-.3-3.2-.5-4.6-.5-2.4 0-2.8.6-2.8 2.1 0 1.8 0 2.2 2.8 2.8 4.7 1.2 5.1 1.8 5.1 5 .2 3.3-.8 4.8-5.5 4.8zM441.3 62.9c-1 .4-2.2.6-3.5.6-2.8 0-4.1-1-4.1-3.8V49.1h-2.9v-2.4h2.9v-4.1l2.8-.4v4.5h4.7l-.2 2.4h-4.4v10.2c0 1.2.2 1.8 1.7 1.8.8 0 1.6-.1 2.6-.4l.4 2.2zM445.2 44v-4.1h2.8V44h-2.8zm0 19.2V46.7h2.8v16.5h-2.8zM462.1 62.9c-1 .4-2.2.6-3.5.6-2.8 0-4.1-1-4.1-3.8V49.1h-2.9v-2.4h2.9v-4.1l2.8-.4v4.5h4.7l-.2 2.4h-4.4v10.2c0 1.2.2 1.8 1.7 1.8.8 0 1.6-.1 2.6-.4l.4 2.2zM468.7 46.7v12.6c0 1.1.5 1.5 1.6 1.5 1.2 0 3.8-.7 5.5-1.7V46.7h2.8v16.5h-2.3l-.3-1.4c-1.8.9-4.7 1.8-6.6 1.8-2.6 0-3.6-1.7-3.6-4.2V46.7h2.9zM492.7 62.9c-1 .4-2.2.6-3.5.6-2.8 0-4.1-1-4.1-3.8V49.1h-2.9v-2.4h2.9v-4.1l2.8-.4v4.5h4.7l-.2 2.4H488v10.2c0 1.2.2 1.8 1.7 1.8.8 0 1.6-.1 2.6-.4l.4 2.2zM502.5 61.1c1.6 0 3.4-.3 5.2-.8l.4 2.3c-1.6.6-3.8.9-5.8.9-4.9 0-6.5-2.3-6.5-6.1v-4.9c0-3.4 1.6-6.2 6.5-6.2s6.2 2.8 6.2 6.2V56h-9.8v1.4c-.1 2.6.6 3.7 3.8 3.7zm-3.9-7.4h7.1v-1.4c0-2.3-.8-3.6-3.5-3.6s-3.6 1.3-3.6 3.6v1.4zM396.6 95.8c-4.8 0-6.7-2.7-6.7-6.2v-4.8c0-3.5 1.9-6.2 6.7-6.2s6.7 2.7 6.7 6.2v4.8c0 3.4-1.9 6.2-6.7 6.2zm0-14.7c-2.6 0-3.9 1.2-3.9 3.6v5c0 2.4 1.3 3.6 3.9 3.6 2.6 0 3.9-1.2 3.9-3.6v-5c0-2.4-1.3-3.6-3.9-3.6zM416.9 74.2c-.9-.2-2-.3-2.7-.3-1.8 0-2.2.6-2.2 2.3V79h4.7l-.2 2.4H412v14.1h-2.8V81.3h-2.9v-2.4h2.9v-3c0-2.9 1.6-4.4 4.7-4.4 1.1 0 2.2.1 3.4.5l-.4 2.2zM431.9 75.5h-6.7v-2.6h16.4v2.6h-6.7v20H432v-20zM448.4 93.3c1.6 0 3.4-.3 5.2-.8l.4 2.3c-1.6.6-3.8.9-5.8.9-4.9 0-6.5-2.3-6.5-6.1v-4.9c0-3.4 1.6-6.2 6.5-6.2s6.2 2.8 6.2 6.2v3.5h-9.8v1.4c-.1 2.7.6 3.7 3.8 3.7zm-3.9-7.4h7.1v-1.4c0-2.3-.8-3.6-3.5-3.6s-3.6 1.3-3.6 3.6v1.4zM457.8 89.8v-5.2c0-3.8 1.4-6 6.6-6 1.5 0 3.1.2 3.9.5l-.2 2.4c-1.3-.3-2.5-.4-3.6-.4-2.8 0-3.8.8-3.8 3.4v5.4c0 2.6.9 3.4 3.8 3.4 1.2 0 2.3-.1 3.6-.4l.3 2.4c-.8.3-2.5.5-4 .5-5.4 0-6.6-2.2-6.6-6zM482.6 95.4V82.8c0-1.1-.5-1.5-1.6-1.5-1.2 0-3.8.8-5.5 1.7v12.4h-2.8V72.2l2.8-.4v8.5c1.8-.9 4.4-1.7 6.4-1.7 2.6 0 3.6 1.7 3.6 4.2v12.6h-2.9zM500.7 95.4V82.8c0-1.1-.5-1.5-1.6-1.5-1.2 0-3.8.7-5.5 1.7v12.5h-2.8V78.9h2.3l.3 1.4c1.8-.9 4.7-1.8 6.6-1.8 2.6 0 3.6 1.7 3.6 4.2v12.6h-2.9zM514.6 95.8c-4.8 0-6.7-2.7-6.7-6.2v-4.8c0-3.5 1.9-6.2 6.7-6.2s6.7 2.7 6.7 6.2v4.8c0 3.4-1.9 6.2-6.7 6.2zm0-14.7c-2.6 0-3.9 1.2-3.9 3.6v5c0 2.4 1.3 3.6 3.9 3.6 2.6 0 3.9-1.2 3.9-3.6v-5c0-2.4-1.3-3.6-3.9-3.6zM525.9 95.4V72.2l2.8-.4v23.7h-2.8zM540 95.8c-4.8 0-6.7-2.7-6.7-6.2v-4.8c0-3.5 1.9-6.2 6.7-6.2s6.7 2.7 6.7 6.2v4.8c.1 3.4-1.8 6.2-6.7 6.2zm0-14.7c-2.6 0-3.9 1.2-3.9 3.6v5c0 2.4 1.3 3.6 3.9 3.6 2.6 0 3.9-1.2 3.9-3.6v-5c0-2.4-1.3-3.6-3.9-3.6zM564.1 80.6l-2 .4c.6.8.9 2 .9 3.3v.7c0 3.6-2.2 5.6-6.5 5.6-.6 0-1.2 0-1.7-.1-.6.5-1.2 1.1-1.2 1.8 0 .6.3.9 1.1.9 1.7.2 2.6.3 4.7.5 3 .3 4.1 1.5 4.1 4 0 3.6-1.3 4.8-7.2 4.8-1.5 0-4.1-.3-6-.8l.4-2.2c1.7.4 3.9.7 5.5.7 4.2 0 4.6-.6 4.6-2.3 0-1.4-.5-1.6-2.4-1.8-1.8-.2-2.4-.2-4.4-.4-2.4-.2-3.2-1.5-3.2-3 0-1.2.7-2.2 1.6-2.9-1.6-.9-2.3-2.5-2.3-4.7v-.7c0-3.6 1.7-5.7 6.4-5.7.8 0 2 .1 2.8.3h4.7v1.6zm-7.5.3c-2.7 0-3.8.9-3.8 3.4v.7c0 2.5 1.1 3.3 3.8 3.3s3.8-1.1 3.8-3.3v-.7c0-2.4-1.1-3.4-3.8-3.4zM572.6 95.4h-1.2L566 78.9h2.8l4.5 14.2 4.6-14.2h2.8l-5.5 16.5-2.3 6.7h-2.7l2.4-6.7z"/><path d="M27.5 57c-7.8-3.7-16.7-6.3-20-8.1-2-1.1-2.6-4.6-1.6-7.8 1.7-5.1 4.7-7.9 6.8-7.9 1.4 0 2.1 1.2 2.1 1.2s2.4-9.4 2.7-10.5c-5.9 0-12 7.2-15.5 17.6C-1.1 50.9-.5 55.7 3.1 59c3.6 3.3 13.5 7.4 17.9 9.4 7.3 3.2 9.4 6.2 10.3 9.2 1 3.1.5 7.5-2.1 9.8 4.3-3.4 8-10.8 12.5-17.6.1-.2.2-.4.3-.5-2.6-4.2-7.8-9.2-14.5-12.3z" style="fill:#702784"/><path d="M77.7 41c-5.8-7.1-10.3-11.7-10.3-17 0-4.1 3-6.7 6-7.6-4.8.8-11.4 2.8-16.9 4.6-.6.2-1.3.4-2 .7-.4 1.2-.6 2.5-.6 4 0 7.2 7.3 16.2 11.9 22.4 4.6 6.2 14.5 16.8 14.5 24.4 0 6.9-4.7 10.7-10.4 10.7-9.4 0-11-10.8-11-10.8l-9.2 13.1s8 11.3 20.4 11.3c13.8 0 24.5-11.7 24.5-24.5 0-11.9-11.1-24.2-16.9-31.3z" style="fill:#0072bc"/><path d="M76.3 6.9C71 6.9 62.9 9.4 56 11.4c-6.9 2.1-16.5 5.7-21.1 5.7-3.2 0-4.1-2.5-3.3-4.5-1.2 2.7-2.6 8.5-3.8 14.2 1.3.5 3.3.9 5.2.9 5.4 0 16.5-4.4 23.5-6.7s15.8-4.9 20.3-4.9 10.2 3.2 10.2 9c0 6.4-5.7 8-8.9 8-2.2 0-4.3-.3-4.3-.3L84.7 46s15-5.3 15-18.3c0-12.2-11.8-20.8-23.4-20.8z" style="fill:#ae132a"/><path d="M58.8 8.3s-.1-8.3-9-8.3C35.2 0 26.7 8.5 23.5 14.5c-3.1 5.8-5.2 15.1-6.5 20.6-1.6 6.4-4 14.9-9.2 14 2.4 1.2 6.9 2.7 12 4.6 2.3-3.6 4.5-9.3 5.7-14.7 1.3-6.3 3.9-21.6 6.2-26.4 2.3-4.8 7.2-7 11.3-7 6.4 0 2.9 6.8 2.9 6.8l12.9-4.1z" style="fill:#00aae7"/><path class="st0" d="M79.3 67.4c-.1-.4-.3-.7-.5-1.1-.1-.3-.3-.5-.4-.8-3.1-6.2-9.1-12.8-12.4-17.3-10.9 1-18.4 12.4-24.3 21.5-6 9.3-10.7 19.5-17.2 19.5-4 0-8.6-4.7-8.6-11.1 0-6 4.8-7.4 4.8-7.4l-10.2-4.6S7.7 69.3 7.7 77c0 11.2 9.3 24.2 20.4 24.2 11.3 0 15.9-11.3 21.8-19.9 8.3-12.2 13.3-19.4 20.6-19.4 2.5 0 6.8 1.6 8.8 5.5z"/><path class="st5" d="M70.8 17.7c.2-.1.4-.3.6-.4h.1l.6-.3h.1c.2-.1.3-.1.5-.2.1 0 .1 0 .2-.1.2-.1.4-.2.6-.2-1.2.2-2.5.5-3.9.8h-.2c-1.7.4-3.4.9-5.2 1.4h-.1l-2.1.6c-.2.1-.5.1-.7.2l-2.1.6-.9.3-1.8.6c-.6.2-1.3.4-2 .7-.3 1.1-.5 2.3-.5 3.6 4-1.8 12-5.3 16.8-7.6z"/><path class="st6" d="M19.8 53.7c.5-.8 1-1.8 1.5-2.8-4.6-.7-13.4-1.8-13.5-1.9H8.1c.1.1.2.1.3.2.1.1.3.1.4.2.2.1.4.2.6.2.2.1.4.2.6.2.2.1.4.2.6.2.1 0 .1.1.2.1s.2.1.4.1h.1c.1 0 .2.1.3.1.1 0 .1 0 .2.1.1 0 .1.1.2.1s.2.1.3.1c.1 0 .1 0 .2.1.1 0 .2.1.3.1.1 0 .2.1.3.1.1.1.3.1.4.2.1 0 .2.1.3.1.2.1.4.1.6.2.1 0 .1 0 .2.1.3.1.5.2.8.3l.9.3c.6.2 1.2.4 1.8.7.4.5 1 .7 1.7.9z"/><path class="st5" d="M41.5 68.5c-.1-.2-.2-.3-.3-.5l-.2-.2c-.2-.2-.3-.4-.5-.6v-.1c-.2-.2-.4-.5-.6-.7-2 3.9-7.1 15.1-8.9 18.2-.4 1-1 1.9-1.8 2.7.5-.4 1.1-.9 1.6-1.4.3-.3.5-.6.8-.8.2-.3.5-.5.7-.8.1-.1.1-.2.2-.3.1-.1.2-.2.2-.3l.3-.3c.1-.1.1-.2.2-.3.5-.6.9-1.3 1.4-1.9.1-.1.1-.2.2-.3.1-.1.2-.3.3-.4.1-.1.1-.2.2-.3.1-.1.1-.2.2-.3.5-.7 1-1.5 1.5-2.3.4-.6.7-1.2 1.1-1.8.4-.6.8-1.3 1.2-1.9.3-.6.7-1.1 1-1.7.1-.1.2-.3.3-.4.4-.6.7-1.2 1.1-1.7.1-.2.2-.4.3-.5-.2-.6-.3-.8-.5-1.1z"/><path class="st6" d="m77.3 64.8.4.4c.1.1.3.3.4.5 0 0 .1.1.1.2.1.1.2.2.3.4.1.2.2.3.3.5l.1.1v-.2c0-.1-.1-.1-.1-.2-.1-.3-.3-.5-.4-.8 0-.1-.1-.2-.2-.3-.2-.3-.3-.6-.5-.9-.1-.2-.2-.4-.3-.5-.1-.2-.2-.4-.4-.6-.1-.2-.3-.4-.4-.6-.1-.2-.2-.4-.3-.5-.1-.2-.2-.4-.4-.6-.1-.2-.3-.4-.4-.6-.1-.2-.2-.3-.3-.5-.2-.2-.3-.4-.5-.7-.1-.2-.3-.4-.4-.6-.1-.2-.3-.4-.4-.6-.4-.5-.8-1.1-1.2-1.6-.4-.6-.9-1.2-1.3-1.7-.6-.7-1.1-1.4-1.7-2.1l-.1-.1-1.2-1.5c-.5-.6-.9-1.1-1.3-1.7-.4-.5-.8-1.1-1.2-1.6-1.2.1-2.4.3-3.5.7 3.7 3.6 11.9 12.1 14.9 15.7zM31.5 15.2c-.1-.4-.2-.8-.2-1.2v-.7c0-.1 0-.1.1-.2V13c0-.1.1-.2.1-.4-1.2 2.7-2.6 8.5-3.8 14.2.8.3 1.9.6 3.1.7.2-3.4.5-9.2.7-12.3z"/><path class="st0" d="M264.6 95.5 237.9 8.4h-26.2l-26.6 87.1h20.4c3.7-3.2 9.1-8.5 14.5-11.5 8-4.4 14.8-5 19.6-4.5l4.4 16h20.6zm-39.3-33.2c-3.8 1-8.1 3.1-12 5.4l11.6-42 9.8 35.5c-3.1-.1-6.3.3-9.4 1.1z"/><path class="st6" d="m239.7 79.2-5-18.1c-1.9 0-3.8.1-5.7.4l10.7 17.7z"/></svg>